<svg version="1.1" viewBox="0.0 0.0 480.0 480.0" fill="none" stroke="none" stroke-linecap="square" stroke-miterlimit="10" xmlns:xlink="http://www.w3.org/1999/xlink" xmlns="http://www.w3.org/2000/svg"><clipPath id="g22a42929b9e_0_9.0"><path d="m0 0l480.0 0l0 480.0l-480.0 0l0 -480.0z" clip-rule="nonzero"/></clipPath><g clip-path="url(#g22a42929b9e_0_9.0)"><path fill="#ffffff" d="m0 0l480.0 0l0 480.0l-480.0 0z" fill-rule="evenodd"/><g filter="url(#shadowFilter-g22a42929b9e_0_9.1)"><use xlink:href="#g22a42929b9e_0_9.1" transform="matrix(1.0 0.0 0.0 1.0 0.0 1.0)"/></g><defs><filter id="shadowFilter-g22a42929b9e_0_9.1" filterUnits="userSpaceOnUse"><feGaussianBlur in="SourceAlpha" stdDeviation="2.5" result="blur"/><feComponentTransfer in="blur" color-interpolation-filters="sRGB"><feFuncR type="linear" slope="0" intercept="0.0"/><feFuncG type="linear" slope="0" intercept="0.0"/><feFuncB type="linear" slope="0" intercept="0.0"/><feFuncA type="linear" slope="0.4" intercept="0"/></feComponentTransfer></filter></defs><g id="g22a42929b9e_0_9.1"><path fill="#0944a1" d="m246.77203 98.84999l0 0c65.22241 0.27353668 121.77759 45.16667 136.84378 108.62569l-24.48288 5.812622l0 0c-12.382294 -52.15442 -58.862732 -89.05029 -112.46643 -89.2751z" fill-rule="evenodd"/></g><g filter="url(#shadowFilter-g22a42929b9e_0_9.2)"><use xlink:href="#g22a42929b9e_0_9.2" transform="matrix(1.0 0.0 0.0 1.0 0.0 1.0)"/></g><defs><filter id="shadowFilter-g22a42929b9e_0_9.2" filterUnits="userSpaceOnUse"><feGaussianBlur in="SourceAlpha" stdDeviation="2.5" result="blur"/><feComponentTransfer in="blur" color-interpolation-filters="sRGB"><feFuncR type="linear" slope="0" intercept="0.0"/><feFuncG type="linear" slope="0" intercept="0.0"/><feFuncB type="linear" slope="0" intercept="0.0"/><feFuncA type="linear" slope="0.4" intercept="0"/></feComponentTransfer></filter></defs><g id="g22a42929b9e_0_9.2"><path fill="#307bf3" d="m330.41425 353.67184l0 0c45.95871 -33.792175 67.07358 -91.91629 53.51996 -147.32762l-24.301971 5.9442444c11.152466 45.59468 -6.2216797 93.42149 -44.03836 121.227066z" fill-rule="evenodd"/></g><path fill="#0944a1" d="m377.68085 224.5543l-33.984253 -17.291336l51.275604 -16.692917z" fill-rule="evenodd"/><g filter="url(#shadowFilter-g22a42929b9e_0_9.3)"><use xlink:href="#g22a42929b9e_0_9.3" transform="matrix(1.0 0.0 0.0 1.0 0.0 1.0)"/></g><defs><filter id="shadowFilter-g22a42929b9e_0_9.3" filterUnits="userSpaceOnUse"><feGaussianBlur in="SourceAlpha" stdDeviation="2.5" result="blur"/><feComponentTransfer in="blur" color-interpolation-filters="sRGB"><feFuncR type="linear" slope="0" intercept="0.0"/><feFuncG type="linear" slope="0" intercept="0.0"/><feFuncB type="linear" slope="0" intercept="0.0"/><feFuncA type="linear" slope="0.4" intercept="0"/></feComponentTransfer></filter></defs><g id="g22a42929b9e_0_9.3"><path fill="#a1c3fa" d="m248.69252 98.45885l0 0c-64.37694 -1.2315216 -121.47575 41.135605 -138.95724 103.10579l24.10527 6.799988l0 0c14.388672 -51.006424 61.38556 -85.87795 114.37294 -84.86432z" fill-rule="evenodd"/></g><g filter="url(#shadowFilter-g22a42929b9e_0_9.4)"><use xlink:href="#g22a42929b9e_0_9.4" transform="matrix(1.0 0.0 0.0 1.0 0.0 1.0)"/></g><defs><filter id="shadowFilter-g22a42929b9e_0_9.4" filterUnits="userSpaceOnUse"><feGaussianBlur in="SourceAlpha" stdDeviation="2.5" result="blur"/><feComponentTransfer in="blur" color-interpolation-filters="sRGB"><feFuncR type="linear" slope="0" intercept="0.0"/><feFuncG type="linear" slope="0" intercept="0.0"/><feFuncB type="linear" slope="0" intercept="0.0"/><feFuncA type="linear" slope="0.4" intercept="0"/></feComponentTransfer></filter></defs><g id="g22a42929b9e_0_9.4"><path fill="#307bf3" d="m160.99515 353.82925l0 0c-50.484467 -37.249237 -70.340836 -103.33925 -48.74543 -162.24448l24.757149 9.076279c-17.563118 47.90645 -1.4143372 101.65611 39.643677 131.95018z" fill-rule="evenodd"/><path stroke="#307bf3" stroke-width="1.0" stroke-linejoin="round" stroke-linecap="butt" d="m160.99515 353.82925l0 0c-50.484467 -37.249237 -70.340836 -103.33925 -48.74543 -162.24448l24.757149 9.076279c-17.563118 47.90645 -1.4143372 101.65611 39.643677 131.95018z" fill-rule="evenodd"/></g><g filter="url(#shadowFilter-g22a42929b9e_0_9.5)"><use xlink:href="#g22a42929b9e_0_9.5" transform="matrix(1.0 0.0 0.0 1.0 0.0 1.0)"/></g><defs><filter id="shadowFilter-g22a42929b9e_0_9.5" filterUnits="userSpaceOnUse"><feGaussianBlur in="SourceAlpha" stdDeviation="2.5" result="blur"/><feComponentTransfer in="blur" color-interpolation-filters="sRGB"><feFuncR type="linear" slope="0" intercept="0.0"/><feFuncG type="linear" slope="0" intercept="0.0"/><feFuncB type="linear" slope="0" intercept="0.0"/><feFuncA type="linear" slope="0.4" intercept="0"/></feComponentTransfer></filter></defs><g id="g22a42929b9e_0_9.5"><path fill="#0944a1" d="m158.5342 352.12396l0 0c47.817734 36.927612 113.82982 39.345825 164.2213 6.0158997l-14.121246 -21.349884c-41.257507 27.288544 -95.304245 25.308655 -134.45454 -4.9254456z" fill-rule="evenodd"/></g><path fill="#307bf3" d="m132.1255 173.38835l16.724411 34.29921l-51.02362 -17.574799z" fill-rule="evenodd"/><path fill="#307bf3" d="m301.9628 360.14563l5.259857 -37.73227l32.472443 42.992126z" fill-rule="evenodd"/><path fill="#0944a1" d="m147.71912 328.08423l37.637787 -5.984253l-31.653534 43.62204z" fill-rule="evenodd"/><path fill="#a1c3fa" d="m273.03415 111.71426l-26.960632 26.960625l0 -53.921257z" fill-rule="evenodd"/><path fill="#f3f3f3" d="m191.3412 335.59842l99.59056 0l0 58.17325l-99.59056 0z" fill-rule="evenodd"/><path stroke="#595959" stroke-width="1.0" stroke-linejoin="round" stroke-linecap="butt" d="m191.3412 335.59842l99.59056 0l0 58.17325l-99.59056 0z" fill-rule="evenodd"/><path fill="#eeeeee" d="m212.65993 344.59842l56.95311 0l0 19.200012l-56.95311 0l0 -19.200012z" fill-rule="nonzero"/><path fill="#000000" fill-opacity="0.0" d="m212.65993 347.51312l56.95311 0l0 18.757812l-56.95311 0l0 -18.757812z" fill-rule="nonzero"/><path fill="#000000" d="m220.90993 349.28656l0 2.359375l-0.765625 0q-0.109375 -0.375 -0.234375 -0.65625q-0.125 -0.296875 -0.265625 -0.484375q-0.125 -0.203125 -0.296875 -0.3125q-0.15625 -0.125 -0.375 -0.171875q-0.21875 -0.046875 -0.515625 -0.046875l-2.46875 0l0 4.09375l1.671875 0q0.34375 0 0.53125 -0.09375q0.203125 -0.09375 0.328125 -0.328125q0.125 -0.234375 0.25 -0.734375l0.734375 0l0 3.0l-0.734375 0q-0.109375 -0.46875 -0.25 -0.703125q-0.125 -0.25 -0.3125 -0.34375q-0.1875 -0.109375 -0.546875 -0.109375l-1.671875 0l0 4.515625l2.421875 0q0.390625 0 0.625 -0.0625q0.234375 -0.078125 0.40625 -0.234375q0.171875 -0.15625 0.296875 -0.40625q0.140625 -0.265625 0.234375 -0.546875q0.09375 -0.28125 0.25 -0.8125l0.765625 0l-0.140625 2.75l-7.234375 0l0 -0.390625q0.484375 -0.125 0.640625 -0.265625q0.171875 -0.15625 0.21875 -0.4375q0.046875 -0.28125 0.046875 -0.859375l0 -6.765625q0 -0.53125 -0.046875 -0.78125q-0.03125 -0.25 -0.125 -0.375q-0.078125 -0.140625 -0.234375 -0.21875q-0.140625 -0.09375 -0.5 -0.1875l0 -0.390625l7.296875 0zm5.015625 6.15625l1.015625 -1.28125q0.171875 -0.21875 0.265625 -0.40625q0.109375 -0.203125 0.109375 -0.421875q0 -0.171875 -0.140625 -0.28125q-0.125 -0.125 -0.40625 -0.1875l0 -0.375l2.546875 0l0 0.375q-0.296875 0.09375 -0.609375 0.34375q-0.296875 0.25 -0.75 0.796875l-1.609375 1.984375l1.78125 2.40625q0.375 0.515625 0.671875 0.796875q0.3125 0.265625 0.625 0.375l0 0.390625l-3.140625 0l0 -0.390625q0.640625 -0.078125 0.640625 -0.484375q0 -0.15625 -0.0625 -0.296875q-0.046875 -0.15625 -0.1875 -0.359375l-1.140625 -1.578125l-1.203125 1.5625q-0.125 0.171875 -0.203125 0.328125q-0.078125 0.140625 -0.078125 0.3125q0 0.21875 0.140625 0.359375q0.15625 0.125 0.46875 0.15625l0 0.390625l-2.609375 0l0 -0.390625q0.25 -0.09375 0.453125 -0.234375q0.21875 -0.140625 0.421875 -0.359375q0.21875 -0.21875 0.578125 -0.65625l1.625 -2.015625l-1.671875 -2.28125q-0.34375 -0.46875 -0.546875 -0.671875q-0.203125 -0.21875 -0.375 -0.328125q-0.171875 -0.109375 -0.34375 -0.15625l0 -0.375l3.0625 0l0 0.375q-0.609375 0.09375 -0.609375 0.484375q0 0.1875 0.078125 0.375q0.078125 0.171875 0.25 0.390625l0.953125 1.328125zm10.3203125 3.1875q-0.5 0.515625 -0.921875 0.8125q-0.40625 0.296875 -0.90625 0.46875q-0.5 0.171875 -1.109375 0.171875q-1.609375 0 -2.4375 -0.96875q-0.8125 -0.96875 -0.8125 -2.84375q0 -1.171875 0.421875 -2.0625q0.421875 -0.890625 1.1875 -1.375q0.78125 -0.484375 1.78125 -0.484375q0.796875 0 1.34375 0.25q0.5625 0.25 0.890625 0.6875q0.328125 0.4375 0.515625 1.09375q0.1875 0.65625 0.203125 1.71875l-4.921875 0l0 0.140625q0 0.921875 0.203125 1.5625q0.21875 0.625 0.6875 0.984375q0.46875 0.34375 1.234375 0.34375q0.640625 0 1.140625 -0.234375q0.515625 -0.234375 1.03125 -0.78125l0.46875 0.515625zm-1.3125 -3.171875q-0.046875 -0.84375 -0.21875 -1.375q-0.15625 -0.546875 -0.484375 -0.828125q-0.328125 -0.28125 -0.859375 -0.28125q-0.796875 0 -1.28125 0.640625q-0.484375 0.640625 -0.5625 1.84375l3.40625 0zm4.9921875 -1.671875l0.109375 0.015625q0.421875 -0.515625 0.78125 -0.8125q0.375 -0.3125 0.796875 -0.46875q0.4375 -0.171875 0.96875 -0.171875q0.453125 0 0.828125 0.046875l0 1.796875l-0.890625 0q-0.1875 -0.421875 -0.40625 -0.609375q-0.203125 -0.1875 -0.5625 -0.1875q-0.28125 0 -0.5625 0.171875q-0.28125 0.15625 -0.546875 0.46875q-0.25 0.3125 -0.34375 0.59375q-0.09375 0.265625 -0.09375 0.640625l0 2.734375q0 0.703125 0.078125 0.984375q0.09375 0.265625 0.28125 0.390625q0.203125 0.125 0.609375 0.1875l0 0.390625l-3.15625 0l0 -0.390625q0.296875 -0.09375 0.421875 -0.15625q0.140625 -0.078125 0.234375 -0.203125q0.09375 -0.125 0.140625 -0.375q0.046875 -0.265625 0.046875 -0.8125l0 -3.40625q0 -0.5 -0.015625 -0.796875q-0.015625 -0.3125 -0.109375 -0.484375q-0.09375 -0.1875 -0.296875 -0.28125q-0.1875 -0.09375 -0.53125 -0.15625l0 -0.40625l1.828125 -0.078125l0.46875 0l-0.078125 1.375zm10.0859375 -1.125l0 1.640625l-0.984375 0q-0.140625 -0.515625 -0.34375 -0.796875q-0.1875 -0.296875 -0.453125 -0.40625q-0.25 -0.125 -0.625 -0.125q-0.546875 0 -0.96875 0.359375q-0.421875 0.34375 -0.671875 1.0625q-0.25 0.71875 -0.25 1.75q0 0.671875 0.09375 1.21875q0.09375 0.546875 0.3125 0.9375q0.234375 0.390625 0.609375 0.609375q0.375 0.21875 0.9375 0.21875q0.53125 0 1.0 -0.203125q0.46875 -0.21875 0.96875 -0.75l0.4375 0.515625q-0.390625 0.4375 -0.703125 0.6875q-0.296875 0.234375 -0.65625 0.390625q-0.34375 0.15625 -0.6875 0.234375q-0.328125 0.078125 -0.734375 0.078125q-1.46875 0 -2.25 -0.984375q-0.78125 -0.984375 -0.78125 -2.828125q0 -1.15625 0.4375 -2.046875q0.4375 -0.90625 1.21875 -1.390625q0.796875 -0.484375 1.828125 -0.484375q0.640625 0 1.171875 0.078125q0.546875 0.078125 1.09375 0.234375zm3.4765625 -3.234375l0 1.515625l-1.4375 0l0 -1.515625l1.4375 0zm-2.234375 10.140625q0.296875 -0.09375 0.421875 -0.15625q0.140625 -0.078125 0.21875 -0.203125q0.09375 -0.125 0.140625 -0.375q0.0625 -0.265625 0.0625 -0.8125l0 -3.40625q0 -0.5 -0.015625 -0.796875q-0.015625 -0.3125 -0.109375 -0.484375q-0.09375 -0.1875 -0.296875 -0.28125q-0.1875 -0.09375 -0.53125 -0.15625l0 -0.40625l1.8125 -0.078125l0.484375 0l0 5.59375q0 0.671875 0.0625 0.9375q0.0625 0.25 0.234375 0.390625q0.171875 0.140625 0.578125 0.234375l0 0.390625l-3.0625 0l0 -0.390625zm9.679672 -5.375l-0.75 0q-0.171875 -0.46875 -0.40625 -0.734375q-0.234375 -0.265625 -0.53125 -0.375q-0.296875 -0.109375 -0.734375 -0.109375q-0.625 0 -1.0 0.296875q-0.359375 0.28125 -0.359375 0.796875q0 0.359375 0.140625 0.59375q0.15625 0.234375 0.46875 0.4375q0.3125 0.203125 1.09375 0.53125q0.796875 0.34375 1.234375 0.640625q0.4375 0.28125 0.671875 0.671875q0.25 0.375 0.25 0.90625q0 0.625 -0.21875 1.046875q-0.203125 0.421875 -0.59375 0.6875q-0.375 0.265625 -0.90625 0.375q-0.515625 0.125 -1.140625 0.125q-0.65625 0 -1.28125 -0.109375q-0.609375 -0.09375 -1.203125 -0.25l0 -1.625l0.765625 0q0.21875 0.71875 0.625 1.046875q0.421875 0.3125 1.140625 0.3125q0.28125 0 0.546875 -0.046875q0.28125 -0.0625 0.484375 -0.203125q0.21875 -0.140625 0.34375 -0.375q0.125 -0.234375 0.125 -0.578125q0 -0.40625 -0.15625 -0.65625q-0.15625 -0.25 -0.484375 -0.453125q-0.328125 -0.203125 -1.15625 -0.5625q-0.71875 -0.296875 -1.15625 -0.578125q-0.421875 -0.28125 -0.671875 -0.65625q-0.234375 -0.390625 -0.234375 -0.90625q0 -0.640625 0.34375 -1.109375q0.34375 -0.484375 1.0 -0.734375q0.65625 -0.25 1.546875 -0.25q0.515625 0 0.984375 0.0625q0.484375 0.046875 1.21875 0.1875l0 1.59375zm7.875 4.4375q-0.5 0.515625 -0.921875 0.8125q-0.40625 0.296875 -0.90625 0.46875q-0.5 0.171875 -1.109375 0.171875q-1.609375 0 -2.4375 -0.96875q-0.8125 -0.96875 -0.8125 -2.84375q0 -1.171875 0.421875 -2.0625q0.421875 -0.890625 1.1875 -1.375q0.78125 -0.484375 1.78125 -0.484375q0.796875 0 1.34375 0.25q0.5625 0.25 0.890625 0.6875q0.328125 0.4375 0.515625 1.09375q0.1875 0.65625 0.203125 1.71875l-4.921875 0l0 0.140625q0 0.921875 0.203125 1.5625q0.21875 0.625 0.6875 0.984375q0.46875 0.34375 1.234375 0.34375q0.640625 0 1.140625 -0.234375q0.515625 -0.234375 1.03125 -0.78125l0.46875 0.515625zm-1.3125 -3.171875q-0.046875 -0.84375 -0.21875 -1.375q-0.15625 -0.546875 -0.484375 -0.828125q-0.328125 -0.28125 -0.859375 -0.28125q-0.796875 0 -1.28125 0.640625q-0.484375 0.640625 -0.5625 1.84375l3.40625 0z" fill-rule="nonzero"/><path fill="#000000" fill-opacity="0.0" d="m269.61304 347.51312l3.5234375 0l0 18.757812l-3.5234375 0l0 -18.757812z" fill-rule="nonzero"/><path fill="#000000" fill-opacity="0.0" d="m273.13647 347.51312l0 0l0 18.757812l0 0l0 -18.757812z" fill-rule="nonzero"/><path fill="#eeeeee" d="m204.52321 363.79843l73.22655 0l0 19.199982l-73.22655 0l0 -19.199982z" fill-rule="nonzero"/><path fill="#000000" fill-opacity="0.0" d="m204.52321 366.7131l73.22655 0l0 18.757812l-73.22655 0l0 -18.757812z" fill-rule="nonzero"/><path fill="#000000" d="m213.32008 375.47092q0 0.84375 -0.15625 1.46875q-0.15625 0.578125 -0.453125 1.03125q-0.265625 0.40625 -0.671875 0.703125q-0.40625 0.28125 -0.984375 0.453125q-0.578125 0.15625 -1.359375 0.15625q-0.953125 0 -1.625 -0.203125q-0.671875 -0.21875 -1.125 -0.703125q-0.4375 -0.484375 -0.640625 -1.125q-0.1875 -0.65625 -0.1875 -1.671875l0 -5.140625q0 -0.609375 -0.046875 -0.8125q-0.03125 -0.21875 -0.109375 -0.34375q-0.0625 -0.125 -0.203125 -0.21875q-0.140625 -0.09375 -0.53125 -0.1875l0 -0.390625l3.28125 0l0 0.390625q-0.4375 0.109375 -0.609375 0.25q-0.171875 0.125 -0.234375 0.40625q-0.0625 0.265625 -0.0625 0.90625l0 5.53125q0 0.765625 0.15625 1.28125q0.171875 0.515625 0.453125 0.796875q0.296875 0.28125 0.6875 0.421875q0.40625 0.125 1.0 0.125q0.546875 0 0.953125 -0.1875q0.421875 -0.203125 0.6875 -0.59375q0.28125 -0.390625 0.375 -0.953125q0.109375 -0.578125 0.109375 -1.53125l0 -4.890625q0 -0.671875 -0.0625 -0.921875q-0.0625 -0.25 -0.21875 -0.375q-0.15625 -0.140625 -0.625 -0.265625l0 -0.390625l3.109375 0l0 0.390625q-0.453125 0.109375 -0.625 0.25q-0.15625 0.140625 -0.21875 0.40625q-0.0625 0.265625 -0.0625 0.90625l0 5.03125zm9.9453125 3.6875l-3.078125 0l0 -0.390625q0.296875 -0.09375 0.421875 -0.15625q0.140625 -0.078125 0.234375 -0.203125q0.09375 -0.125 0.140625 -0.375q0.046875 -0.265625 0.046875 -0.796875l0 -2.046875q0 -0.546875 -0.03125 -0.984375q-0.03125 -0.453125 -0.109375 -0.734375q-0.0625 -0.296875 -0.171875 -0.453125q-0.109375 -0.15625 -0.25 -0.265625q-0.140625 -0.125 -0.328125 -0.1875q-0.1875 -0.0625 -0.5 -0.0625q-0.296875 0 -0.578125 0.125q-0.265625 0.109375 -0.59375 0.40625q-0.328125 0.296875 -0.484375 0.59375q-0.140625 0.28125 -0.140625 0.65625l0 2.921875q0 0.671875 0.0625 0.9375q0.0625 0.25 0.234375 0.390625q0.171875 0.140625 0.578125 0.234375l0 0.390625l-3.0625 0l0 -0.390625q0.296875 -0.09375 0.421875 -0.15625q0.140625 -0.078125 0.21875 -0.203125q0.09375 -0.125 0.140625 -0.375q0.0625 -0.265625 0.0625 -0.8125l0 -3.40625q0 -0.5 -0.015625 -0.796875q-0.015625 -0.3125 -0.109375 -0.484375q-0.09375 -0.1875 -0.296875 -0.28125q-0.1875 -0.09375 -0.53125 -0.15625l0 -0.40625l1.828125 -0.078125l0.46875 0l-0.078125 1.28125l0.109375 0.03125q0.578125 -0.59375 0.921875 -0.84375q0.359375 -0.25 0.71875 -0.375q0.375 -0.140625 0.78125 -0.140625q0.421875 0 0.75 0.09375q0.328125 0.09375 0.578125 0.296875q0.265625 0.203125 0.421875 0.515625q0.171875 0.296875 0.25 0.71875q0.078125 0.421875 0.078125 1.0625l0 2.953125q0 0.53125 0.03125 0.78125q0.03125 0.234375 0.109375 0.375q0.078125 0.125 0.21875 0.21875q0.15625 0.09375 0.53125 0.1875l0 0.390625zm7.1328125 -7.296875l0 1.640625l-0.984375 0q-0.140625 -0.515625 -0.34375 -0.796875q-0.1875 -0.296875 -0.453125 -0.40625q-0.25 -0.125 -0.625 -0.125q-0.546875 0 -0.96875 0.359375q-0.421875 0.34375 -0.671875 1.0625q-0.25 0.71875 -0.25 1.75q0 0.671875 0.09375 1.21875q0.09375 0.546875 0.3125 0.9375q0.234375 0.390625 0.609375 0.609375q0.375 0.21875 0.9375 0.21875q0.53125 0 1.0 -0.203125q0.46875 -0.21875 0.96875 -0.75l0.4375 0.515625q-0.390625 0.4375 -0.703125 0.6875q-0.296875 0.234375 -0.65625 0.390625q-0.34375 0.15625 -0.6875 0.234375q-0.328125 0.078125 -0.734375 0.078125q-1.46875 0 -2.25 -0.984375q-0.78125 -0.984375 -0.78125 -2.828125q0 -1.15625 0.4375 -2.046875q0.4375 -0.90625 1.21875 -1.390625q0.796875 -0.484375 1.828125 -0.484375q0.640625 0 1.171875 0.078125q0.546875 0.078125 1.09375 0.234375zm4.6328125 7.421875q-1.625 0 -2.484375 -0.953125q-0.84375 -0.96875 -0.84375 -2.84375q0 -1.28125 0.4375 -2.171875q0.453125 -0.890625 1.234375 -1.328125q0.78125 -0.4375 1.78125 -0.4375q1.671875 0 2.53125 0.984375q0.859375 0.96875 0.859375 2.78125q0 1.296875 -0.4375 2.1875q-0.421875 0.890625 -1.21875 1.34375q-0.78125 0.4375 -1.859375 0.4375zm-1.859375 -3.953125q0 1.609375 0.515625 2.46875q0.515625 0.859375 1.46875 0.859375q0.515625 0 0.875 -0.25q0.375 -0.25 0.609375 -0.671875q0.234375 -0.4375 0.328125 -1.0q0.109375 -0.578125 0.109375 -1.1875q0 -1.15625 -0.265625 -1.90625q-0.25 -0.765625 -0.6875 -1.109375q-0.4375 -0.359375 -1.0 -0.359375q-0.9375 0 -1.453125 0.828125q-0.5 0.8125 -0.5 2.328125zm9.3046875 -3.640625l0 0.375q-0.359375 0.09375 -0.515625 0.171875q-0.140625 0.078125 -0.21875 0.203125q-0.078125 0.125 -0.078125 0.328125q0 0.21875 0.046875 0.453125q0.0625 0.21875 0.171875 0.53125l1.359375 3.953125l1.59375 -3.796875q0.15625 -0.375 0.21875 -0.609375q0.0625 -0.25 0.0625 -0.453125q0 -0.328125 -0.1875 -0.5q-0.171875 -0.171875 -0.640625 -0.28125l0 -0.375l2.921875 0l0 0.375q-0.296875 0.0625 -0.46875 0.203125q-0.15625 0.125 -0.328125 0.40625q-0.15625 0.265625 -0.390625 0.765625l-2.625 5.796875l-0.921875 0l-2.125 -5.84375q-0.21875 -0.59375 -0.34375 -0.8125q-0.125 -0.234375 -0.28125 -0.34375q-0.15625 -0.109375 -0.4375 -0.171875l0 -0.375l3.1875 0zm11.40625 6.140625q-0.5 0.515625 -0.921875 0.8125q-0.40625 0.296875 -0.90625 0.46875q-0.5 0.171875 -1.109375 0.171875q-1.609375 0 -2.4375 -0.96875q-0.8125 -0.96875 -0.8125 -2.84375q0 -1.171875 0.421875 -2.0625q0.421875 -0.890625 1.1875 -1.375q0.78125 -0.484375 1.78125 -0.484375q0.796875 0 1.34375 0.25q0.5625 0.25 0.890625 0.6875q0.328125 0.4375 0.515625 1.09375q0.1875 0.65625 0.203125 1.71875l-4.921875 0l0 0.140625q0 0.921875 0.203125 1.5625q0.21875 0.625 0.6875 0.984375q0.46875 0.34375 1.234375 0.34375q0.640625 0 1.140625 -0.234375q0.515625 -0.234375 1.03125 -0.78125l0.46875 0.515625zm-1.3125 -3.171875q-0.046875 -0.84375 -0.21875 -1.375q-0.15625 -0.546875 -0.484375 -0.828125q-0.328125 -0.28125 -0.859375 -0.28125q-0.796875 0 -1.28125 0.640625q-0.484375 0.640625 -0.5625 1.84375l3.40625 0zm4.9921722 -1.671875l0.109375 0.015625q0.421875 -0.515625 0.78125 -0.8125q0.375 -0.3125 0.796875 -0.46875q0.4375 -0.171875 0.96875 -0.171875q0.453125 0 0.828125 0.046875l0 1.796875l-0.890625 0q-0.1875 -0.421875 -0.40625 -0.609375q-0.203125 -0.1875 -0.5625 -0.1875q-0.28125 0 -0.5625 0.171875q-0.28125 0.15625 -0.546875 0.46875q-0.25 0.3125 -0.34375 0.59375q-0.09375 0.265625 -0.09375 0.640625l0 2.734375q0 0.703125 0.078125 0.984375q0.09375 0.265625 0.28125 0.390625q0.203125 0.125 0.609375 0.1875l0 0.390625l-3.15625 0l0 -0.390625q0.296875 -0.09375 0.421875 -0.15625q0.140625 -0.078125 0.234375 -0.203125q0.09375 -0.125 0.140625 -0.375q0.046875 -0.265625 0.046875 -0.8125l0 -3.40625q0 -0.5 -0.015625 -0.796875q-0.015625 -0.3125 -0.109375 -0.484375q-0.09375 -0.1875 -0.296875 -0.28125q-0.1875 -0.09375 -0.53125 -0.15625l0 -0.40625l1.828125 -0.078125l0.46875 0l-0.078125 1.375zm10.5078125 4.84375q-0.5 0.515625 -0.921875 0.8125q-0.40625 0.296875 -0.90625 0.46875q-0.5 0.171875 -1.109375 0.171875q-1.609375 0 -2.4375 -0.96875q-0.8125 -0.96875 -0.8125 -2.84375q0 -1.171875 0.421875 -2.0625q0.421875 -0.890625 1.1875 -1.375q0.78125 -0.484375 1.78125 -0.484375q0.796875 0 1.34375 0.25q0.5625 0.25 0.890625 0.6875q0.328125 0.4375 0.515625 1.09375q0.1875 0.65625 0.203125 1.71875l-4.921875 0l0 0.140625q0 0.921875 0.203125 1.5625q0.21875 0.625 0.6875 0.984375q0.46875 0.34375 1.234375 0.34375q0.640625 0 1.140625 -0.234375q0.515625 -0.234375 1.03125 -0.78125l0.46875 0.515625zm-1.3125 -3.171875q-0.046875 -0.84375 -0.21875 -1.375q-0.15625 -0.546875 -0.484375 -0.828125q-0.328125 -0.28125 -0.859375 -0.28125q-0.796875 0 -1.28125 0.640625q-0.484375 0.640625 -0.5625 1.84375l3.40625 0zm8.1484375 -4.0q0 -0.75 -0.015625 -1.046875q0 -0.296875 -0.0625 -0.5q-0.046875 -0.203125 -0.140625 -0.3125q-0.078125 -0.125 -0.234375 -0.1875q-0.15625 -0.078125 -0.546875 -0.15625l0 -0.40625l1.890625 -0.078125l0.453125 0l0 9.046875q0 0.609375 0.015625 0.875q0.03125 0.265625 0.109375 0.421875q0.078125 0.15625 0.25 0.25q0.171875 0.09375 0.59375 0.1875l0 0.40625l-1.84375 0.078125l-0.46875 0l0.09375 -1.28125l-0.125 -0.03125q-0.484375 0.515625 -0.859375 0.78125q-0.359375 0.265625 -0.765625 0.421875q-0.40625 0.15625 -0.875 0.15625q-1.28125 0 -1.984375 -0.96875q-0.6875 -0.984375 -0.6875 -2.8125q0 -1.28125 0.453125 -2.171875q0.453125 -0.90625 1.21875 -1.34375q0.765625 -0.4375 1.734375 -0.4375q0.515625 0 0.9375 0.09375q0.421875 0.078125 0.859375 0.265625l0 -1.25zm0 3.859375q0 -0.609375 -0.0625 -0.96875q-0.046875 -0.375 -0.171875 -0.625q-0.125 -0.25 -0.34375 -0.421875q-0.21875 -0.171875 -0.484375 -0.25q-0.265625 -0.078125 -0.625 -0.078125q-1.0 0 -1.53125 0.8125q-0.515625 0.796875 -0.515625 2.296875q0 1.5 0.421875 2.28125q0.4375 0.78125 1.3125 0.78125q0.34375 0 0.5625 -0.0625q0.234375 -0.0625 0.453125 -0.1875q0.21875 -0.125 0.4375 -0.34375q0.234375 -0.234375 0.328125 -0.421875q0.109375 -0.1875 0.15625 -0.421875q0.0625 -0.25 0.0625 -0.640625l0 -1.75z" fill-rule="nonzero"/><path fill="#000000" fill-opacity="0.0" d="m277.74976 366.7131l0 0l0 18.757812l0 0l0 -18.757812z" fill-rule="nonzero"/><path fill="#f3f3f3" d="m305.14435 254.0971l128.37796 0l0 38.771667l-128.37796 0z" fill-rule="evenodd"/><path stroke="#595959" stroke-width="1.0" stroke-linejoin="round" stroke-linecap="butt" d="m305.14435 254.0971l128.37796 0l0 38.771667l-128.37796 0z" fill-rule="evenodd"/><path fill="#eeeeee" d="m318.40756 263.0971l101.85156 0l0 19.200012l-101.85156 0l0 -19.200012z" fill-rule="nonzero"/><path fill="#000000" fill-opacity="0.0" d="m318.40756 266.0118l101.85156 0l0 18.757812l-101.85156 0l0 -18.757812z" fill-rule="nonzero"/><path fill="#000000" d="m320.0638 276.01962q0.15625 0.6875 0.421875 1.09375q0.265625 0.390625 0.6875 0.59375q0.421875 0.1875 1.09375 0.1875q0.90625 0 1.390625 -0.46875q0.5 -0.484375 0.5 -1.40625q0 -0.578125 -0.203125 -0.96875q-0.203125 -0.40625 -0.671875 -0.75q-0.453125 -0.359375 -1.40625 -0.828125q-0.90625 -0.453125 -1.4375 -0.890625q-0.53125 -0.4375 -0.796875 -0.9375q-0.265625 -0.515625 -0.265625 -1.109375q0 -0.875 0.40625 -1.515625q0.421875 -0.65625 1.203125 -1.0q0.796875 -0.359375 1.828125 -0.359375q0.59375 0 1.15625 0.0625q0.5625 0.0625 1.421875 0.28125l0 2.109375l-0.78125 0q-0.171875 -0.6875 -0.453125 -1.0625q-0.265625 -0.390625 -0.640625 -0.53125q-0.359375 -0.15625 -0.953125 -0.15625q-0.5 0 -0.90625 0.1875q-0.40625 0.1875 -0.640625 0.5625q-0.234375 0.375 -0.234375 0.90625q0 0.546875 0.203125 0.9375q0.203125 0.375 0.625 0.703125q0.421875 0.328125 1.25 0.734375q1.0 0.5 1.546875 0.9375q0.546875 0.421875 0.859375 0.984375q0.3125 0.546875 0.3125 1.28125q0 0.8125 -0.265625 1.390625q-0.25 0.5625 -0.71875 0.921875q-0.453125 0.34375 -1.09375 0.515625q-0.625 0.15625 -1.390625 0.15625q-1.21875 0 -2.828125 -0.421875l0 -2.140625l0.78125 0zm6.578125 -4.640625q0.390625 -0.0625 0.625 -0.21875q0.25 -0.15625 0.375 -0.40625q0.140625 -0.25 0.21875 -0.609375q0.078125 -0.375 0.171875 -1.09375l1.109375 0l0 1.9375l2.515625 0l0 0.78125l-2.515625 0l0 3.484375q0 0.75 0.0625 1.203125q0.0625 0.453125 0.234375 0.703125q0.171875 0.25 0.390625 0.359375q0.21875 0.109375 0.5625 0.109375q0.3125 0 0.578125 -0.125q0.28125 -0.125 0.546875 -0.375l0.34375 0.421875q-0.546875 0.546875 -1.046875 0.796875q-0.5 0.234375 -1.03125 0.234375q-1.0 0 -1.5 -0.59375q-0.484375 -0.609375 -0.484375 -1.875l0 -4.34375l-1.15625 0l0 -0.390625zm10.3984375 5.953125l-0.125 -0.03125q-0.671875 0.703125 -1.28125 1.0q-0.59375 0.28125 -1.265625 0.28125q-0.59375 0 -1.046875 -0.234375q-0.453125 -0.234375 -0.703125 -0.640625q-0.234375 -0.421875 -0.234375 -0.96875q0 -1.140625 1.125 -1.765625q1.140625 -0.625 3.390625 -0.71875l0 -0.515625q0 -0.8125 -0.15625 -1.28125q-0.15625 -0.46875 -0.5 -0.6875q-0.328125 -0.21875 -0.890625 -0.21875q-0.609375 0 -0.984375 0.328125q-0.359375 0.3125 -0.546875 0.953125l-1.03125 0l0 -1.015625q0.75 -0.390625 1.25 -0.5625q0.5 -0.1875 1.0 -0.296875q0.5 -0.109375 1.015625 -0.109375q0.78125 0 1.25 0.25q0.46875 0.25 0.703125 0.765625q0.234375 0.5 0.234375 1.515625l0 2.71875q0 0.578125 0 0.828125q0.015625 0.234375 0.046875 0.4375q0.046875 0.203125 0.125 0.328125q0.078125 0.109375 0.21875 0.203125q0.15625 0.078125 0.5 0.171875l0 0.390625l-2.140625 0l0.046875 -1.125zm-0.140625 -2.4375q-1.578125 0.015625 -2.375 0.421875q-0.78125 0.40625 -0.78125 1.21875q0 0.453125 0.171875 0.71875q0.1875 0.25 0.453125 0.34375q0.28125 0.09375 0.65625 0.09375q0.53125 0 0.953125 -0.25q0.4375 -0.265625 0.671875 -0.65625q0.25 -0.40625 0.25 -0.796875l0 -1.09375zm5.546875 -2.609375l0.109375 0.015625q0.421875 -0.515625 0.78125 -0.8125q0.375 -0.3125 0.796875 -0.46875q0.4375 -0.171875 0.96875 -0.171875q0.453125 0 0.828125 0.046875l0 1.796875l-0.890625 0q-0.1875 -0.421875 -0.40625 -0.609375q-0.203125 -0.1875 -0.5625 -0.1875q-0.28125 0 -0.5625 0.171875q-0.28125 0.15625 -0.546875 0.46875q-0.25 0.3125 -0.34375 0.59375q-0.09375 0.265625 -0.09375 0.640625l0 2.734375q0 0.703125 0.078125 0.984375q0.09375 0.265625 0.28125 0.390625q0.203125 0.125 0.609375 0.1875l0 0.390625l-3.15625 0l0 -0.390625q0.296875 -0.09375 0.421875 -0.15625q0.140625 -0.078125 0.234375 -0.203125q0.09375 -0.125 0.140625 -0.375q0.046875 -0.265625 0.046875 -0.8125l0 -3.40625q0 -0.5 -0.015625 -0.796875q-0.015625 -0.3125 -0.109375 -0.484375q-0.09375 -0.1875 -0.296875 -0.28125q-0.1875 -0.09375 -0.53125 -0.15625l0 -0.40625l1.828125 -0.078125l0.46875 0l-0.078125 1.375zm4.0390625 -0.90625q0.390625 -0.0625 0.625 -0.21875q0.25 -0.15625 0.375 -0.40625q0.140625 -0.25 0.21875 -0.609375q0.078125 -0.375 0.171875 -1.09375l1.109375 0l0 1.9375l2.515625 0l0 0.78125l-2.515625 0l0 3.484375q0 0.75 0.0625 1.203125q0.0625 0.453125 0.234375 0.703125q0.171875 0.25 0.390625 0.359375q0.21875 0.109375 0.5625 0.109375q0.3125 0 0.578125 -0.125q0.28125 -0.125 0.546875 -0.375l0.34375 0.421875q-0.546875 0.546875 -1.046875 0.796875q-0.5 0.234375 -1.03125 0.234375q-1.0 0 -1.5 -0.59375q-0.484375 -0.609375 -0.484375 -1.875l0 -4.34375l-1.15625 0l0 -0.390625zm11.96875 5.125q0 0.515625 0.03125 0.765625q0.046875 0.234375 0.125 0.375q0.078125 0.140625 0.234375 0.234375q0.171875 0.09375 0.53125 0.1875l0 0.390625l-3.296875 0l0 -0.390625q0.484375 -0.125 0.640625 -0.265625q0.171875 -0.15625 0.21875 -0.4375q0.046875 -0.28125 0.046875 -0.859375l0 -6.765625q0 -0.53125 -0.046875 -0.78125q-0.03125 -0.25 -0.125 -0.375q-0.078125 -0.140625 -0.234375 -0.21875q-0.140625 -0.09375 -0.5 -0.1875l0 -0.390625l3.296875 0l0 0.390625q-0.34375 0.078125 -0.5 0.171875q-0.15625 0.078125 -0.25 0.21875q-0.078125 0.125 -0.125 0.390625q-0.046875 0.25 -0.046875 0.78125l0 6.765625zm10.234375 1.953125l-3.078125 0l0 -0.390625q0.296875 -0.09375 0.421875 -0.15625q0.140625 -0.078125 0.234375 -0.203125q0.09375 -0.125 0.140625 -0.375q0.046875 -0.265625 0.046875 -0.796875l0 -2.046875q0 -0.546875 -0.03125 -0.984375q-0.03125 -0.453125 -0.109375 -0.734375q-0.0625 -0.296875 -0.171875 -0.453125q-0.109375 -0.15625 -0.25 -0.265625q-0.140625 -0.125 -0.328125 -0.1875q-0.1875 -0.0625 -0.5 -0.0625q-0.296875 0 -0.578125 0.125q-0.265625 0.109375 -0.59375 0.40625q-0.328125 0.296875 -0.484375 0.59375q-0.140625 0.28125 -0.140625 0.65625l0 2.921875q0 0.671875 0.0625 0.9375q0.0625 0.25 0.234375 0.390625q0.171875 0.140625 0.578125 0.234375l0 0.390625l-3.0625 0l0 -0.390625q0.296875 -0.09375 0.421875 -0.15625q0.140625 -0.078125 0.21875 -0.203125q0.09375 -0.125 0.140625 -0.375q0.0625 -0.265625 0.0625 -0.8125l0 -3.40625q0 -0.5 -0.015625 -0.796875q-0.015625 -0.3125 -0.109375 -0.484375q-0.09375 -0.1875 -0.296875 -0.28125q-0.1875 -0.09375 -0.53125 -0.15625l0 -0.40625l1.828125 -0.078125l0.46875 0l-0.078125 1.28125l0.109375 0.03125q0.578125 -0.59375 0.921875 -0.84375q0.359375 -0.25 0.71875 -0.375q0.375 -0.140625 0.78125 -0.140625q0.421875 0 0.75 0.09375q0.328125 0.09375 0.578125 0.296875q0.265625 0.203125 0.421875 0.515625q0.171875 0.296875 0.25 0.71875q0.078125 0.421875 0.078125 1.0625l0 2.953125q0 0.53125 0.03125 0.78125q0.03125 0.234375 0.109375 0.375q0.078125 0.125 0.21875 0.21875q0.15625 0.09375 0.53125 0.1875l0 0.390625zm6.5546875 -5.765625l-0.75 0q-0.171875 -0.46875 -0.40625 -0.734375q-0.234375 -0.265625 -0.53125 -0.375q-0.296875 -0.109375 -0.734375 -0.109375q-0.625 0 -1.0 0.296875q-0.359375 0.28125 -0.359375 0.796875q0 0.359375 0.140625 0.59375q0.15625 0.234375 0.46875 0.4375q0.3125 0.203125 1.09375 0.53125q0.796875 0.34375 1.234375 0.640625q0.4375 0.28125 0.671875 0.671875q0.25 0.375 0.25 0.90625q0 0.625 -0.21875 1.046875q-0.203125 0.421875 -0.59375 0.6875q-0.375 0.265625 -0.90625 0.375q-0.515625 0.125 -1.140625 0.125q-0.65625 0 -1.28125 -0.109375q-0.609375 -0.09375 -1.203125 -0.25l0 -1.625l0.765625 0q0.21875 0.71875 0.625 1.046875q0.421875 0.3125 1.140625 0.3125q0.28125 0 0.546875 -0.046875q0.28125 -0.0625 0.484375 -0.203125q0.21875 -0.140625 0.34375 -0.375q0.125 -0.234375 0.125 -0.578125q0 -0.40625 -0.15625 -0.65625q-0.15625 -0.25 -0.484375 -0.453125q-0.328125 -0.203125 -1.15625 -0.5625q-0.71875 -0.296875 -1.15625 -0.578125q-0.421875 -0.28125 -0.671875 -0.65625q-0.234375 -0.390625 -0.234375 -0.90625q0 -0.640625 0.34375 -1.109375q0.34375 -0.484375 1.0 -0.734375q0.65625 -0.25 1.546875 -0.25q0.515625 0 0.984375 0.0625q0.484375 0.046875 1.21875 0.1875l0 1.59375zm3.75 5.53125l0 1.65625q0 0.5 0.03125 0.75q0.046875 0.25 0.125 0.390625q0.09375 0.15625 0.265625 0.25q0.171875 0.09375 0.546875 0.171875l0 0.375l-3.1875 0l0 -0.375q0.28125 -0.078125 0.453125 -0.171875q0.171875 -0.078125 0.265625 -0.234375q0.09375 -0.15625 0.125 -0.4375q0.03125 -0.265625 0.03125 -0.71875l0 -6.71875q0 -0.5625 -0.015625 -0.796875q-0.015625 -0.234375 -0.0625 -0.390625q-0.046875 -0.15625 -0.140625 -0.25q-0.078125 -0.109375 -0.234375 -0.171875q-0.15625 -0.078125 -0.5 -0.15625l0 -0.40625l1.828125 -0.078125l0.484375 0l-0.109375 1.28125l0.125 0.03125q0.484375 -0.5 0.765625 -0.71875q0.28125 -0.21875 0.578125 -0.359375q0.296875 -0.15625 0.578125 -0.21875q0.28125 -0.0625 0.59375 -0.0625q1.28125 0 1.96875 0.96875q0.703125 0.953125 0.703125 2.8125q0 1.296875 -0.390625 2.171875q-0.390625 0.875 -1.140625 1.328125q-0.75 0.4375 -1.78125 0.4375q-0.578125 0 -1.046875 -0.109375q-0.46875 -0.09375 -0.859375 -0.25zm0 -2.578125q0 0.75 0.09375 1.15625q0.09375 0.40625 0.328125 0.65625q0.25 0.25 0.5625 0.375q0.328125 0.125 0.859375 0.125q0.953125 0 1.421875 -0.78125q0.484375 -0.78125 0.484375 -2.3125q0 -3.0625 -1.796875 -3.0625q-0.4375 0 -0.75 0.140625q-0.3125 0.125 -0.625 0.4375q-0.3125 0.296875 -0.453125 0.59375q-0.125 0.28125 -0.125 0.609375l0 2.0625zm13.0234375 1.484375q-0.5 0.515625 -0.921875 0.8125q-0.40625 0.296875 -0.90625 0.46875q-0.5 0.171875 -1.109375 0.171875q-1.609375 0 -2.4375 -0.96875q-0.8125 -0.96875 -0.8125 -2.84375q0 -1.171875 0.421875 -2.0625q0.421875 -0.890625 1.1875 -1.375q0.78125 -0.484375 1.78125 -0.484375q0.796875 0 1.34375 0.25q0.5625 0.25 0.890625 0.6875q0.328125 0.4375 0.515625 1.09375q0.1875 0.65625 0.203125 1.71875l-4.921875 0l0 0.140625q0 0.921875 0.203125 1.5625q0.21875 0.625 0.6875 0.984375q0.46875 0.34375 1.234375 0.34375q0.640625 0 1.140625 -0.234375q0.515625 -0.234375 1.03125 -0.78125l0.46875 0.515625zm-1.3125 -3.171875q-0.046875 -0.84375 -0.21875 -1.375q-0.15625 -0.546875 -0.484375 -0.828125q-0.328125 -0.28125 -0.859375 -0.28125q-0.796875 0 -1.28125 0.640625q-0.484375 0.640625 -0.5625 1.84375l3.40625 0zm8.6953125 -2.796875l0 1.640625l-0.984375 0q-0.140625 -0.515625 -0.34375 -0.796875q-0.1875 -0.296875 -0.453125 -0.40625q-0.25 -0.125 -0.625 -0.125q-0.546875 0 -0.96875 0.359375q-0.421875 0.34375 -0.671875 1.0625q-0.25 0.71875 -0.25 1.75q0 0.671875 0.09375 1.21875q0.09375 0.546875 0.3125 0.9375q0.234375 0.390625 0.609375 0.609375q0.375 0.21875 0.9375 0.21875q0.53125 0 1.0 -0.203125q0.46875 -0.21875 0.96875 -0.75l0.4375 0.515625q-0.390625 0.4375 -0.703125 0.6875q-0.296875 0.234375 -0.65625 0.390625q-0.34375 0.15625 -0.6875 0.234375q-0.328125 0.078125 -0.734375 0.078125q-1.46875 0 -2.25 -0.984375q-0.78125 -0.984375 -0.78125 -2.828125q0 -1.15625 0.4375 -2.046875q0.4375 -0.90625 1.21875 -1.390625q0.796875 -0.484375 1.828125 -0.484375q0.640625 0 1.171875 0.078125q0.546875 0.078125 1.09375 0.234375zm0.7734375 0.21875q0.390625 -0.0625 0.625 -0.21875q0.25 -0.15625 0.375 -0.40625q0.140625 -0.25 0.21875 -0.609375q0.078125 -0.375 0.171875 -1.09375l1.109375 0l0 1.9375l2.515625 0l0 0.78125l-2.515625 0l0 3.484375q0 0.75 0.0625 1.203125q0.0625 0.453125 0.234375 0.703125q0.171875 0.25 0.390625 0.359375q0.21875 0.109375 0.5625 0.109375q0.3125 0 0.578125 -0.125q0.28125 -0.125 0.546875 -0.375l0.34375 0.421875q-0.546875 0.546875 -1.046875 0.796875q-0.5 0.234375 -1.03125 0.234375q-1.0 0 -1.5 -0.59375q-0.484375 -0.609375 -0.484375 -1.875l0 -4.34375l-1.15625 0l0 -0.390625zm9.1328125 7.203125q-1.625 0 -2.484375 -0.953125q-0.84375 -0.96875 -0.84375 -2.84375q0 -1.28125 0.4375 -2.171875q0.453125 -0.890625 1.234375 -1.328125q0.78125 -0.4375 1.78125 -0.4375q1.671875 0 2.53125 0.984375q0.859375 0.96875 0.859375 2.78125q0 1.296875 -0.4375 2.1875q-0.421875 0.890625 -1.21875 1.34375q-0.78125 0.4375 -1.859375 0.4375zm-1.859375 -3.953125q0 1.609375 0.515625 2.46875q0.515625 0.859375 1.46875 0.859375q0.515625 0 0.875 -0.25q0.375 -0.25 0.609375 -0.671875q0.234375 -0.4375 0.328125 -1.0q0.109375 -0.578125 0.109375 -1.1875q0 -1.15625 -0.265625 -1.90625q-0.25 -0.765625 -0.6875 -1.109375q-0.4375 -0.359375 -1.0 -0.359375q-0.9375 0 -1.453125 0.828125q-0.5 0.8125 -0.5 2.328125zm9.0703125 -2.34375l0.109375 0.015625q0.421875 -0.515625 0.78125 -0.8125q0.375 -0.3125 0.796875 -0.46875q0.4375 -0.171875 0.96875 -0.171875q0.453125 0 0.828125 0.046875l0 1.796875l-0.890625 0q-0.1875 -0.421875 -0.40625 -0.609375q-0.203125 -0.1875 -0.5625 -0.1875q-0.28125 0 -0.5625 0.171875q-0.28125 0.15625 -0.546875 0.46875q-0.25 0.3125 -0.34375 0.59375q-0.09375 0.265625 -0.09375 0.640625l0 2.734375q0 0.703125 0.078125 0.984375q0.09375 0.265625 0.28125 0.390625q0.203125 0.125 0.609375 0.1875l0 0.390625l-3.15625 0l0 -0.390625q0.296875 -0.09375 0.421875 -0.15625q0.140625 -0.078125 0.234375 -0.203125q0.09375 -0.125 0.140625 -0.375q0.046875 -0.265625 0.046875 -0.8125l0 -3.40625q0 -0.5 -0.015625 -0.796875q-0.015625 -0.3125 -0.109375 -0.484375q-0.09375 -0.1875 -0.296875 -0.28125q-0.1875 -0.09375 -0.53125 -0.15625l0 -0.40625l1.828125 -0.078125l0.46875 0l-0.078125 1.375z" fill-rule="nonzero"/><path fill="#000000" fill-opacity="0.0" d="m420.25912 266.0118l0 0l0 18.757812l0 0l0 -18.757812z" fill-rule="nonzero"/><path fill="#f3f3f3" d="m286.2861 126.821526l99.590546 0l0 38.771645l-99.590546 0z" fill-rule="evenodd"/><path stroke="#595959" stroke-width="1.0" stroke-linejoin="round" stroke-linecap="butt" d="m286.2861 126.821526l99.590546 0l0 38.771645l-99.590546 0z" fill-rule="evenodd"/><path fill="#eeeeee" d="m306.4837 135.82152l59.195312 0l0 19.199997l-59.195312 0l0 -19.199997z" fill-rule="nonzero"/><path fill="#000000" fill-opacity="0.0" d="m306.4837 138.7362l59.195312 0l0 18.757812l-59.195312 0l0 -18.757812z" fill-rule="nonzero"/><path fill="#000000" d="m309.81183 146.5409l0 2.65625q0 0.5625 0.046875 0.828125q0.046875 0.25 0.125 0.375q0.09375 0.125 0.234375 0.21875q0.15625 0.078125 0.515625 0.171875l0 0.390625l-3.296875 0l0 -0.390625q0.484375 -0.125 0.640625 -0.265625q0.171875 -0.15625 0.21875 -0.4375q0.046875 -0.28125 0.046875 -0.859375l0 -6.765625q0 -0.53125 -0.046875 -0.78125q-0.03125 -0.25 -0.125 -0.375q-0.078125 -0.140625 -0.234375 -0.21875q-0.140625 -0.09375 -0.5 -0.1875l0 -0.390625l3.859375 0q1.828125 0 2.734375 0.671875q0.90625 0.65625 0.90625 2.0625q0 1.0625 -0.59375 1.8125q-0.578125 0.75 -1.765625 1.171875l0 0.0625q0.484375 0.203125 0.8125 0.5625q0.34375 0.359375 0.765625 1.125l0.703125 1.28125q0.296875 0.5625 0.515625 0.859375q0.21875 0.296875 0.4375 0.453125q0.234375 0.15625 0.609375 0.21875l0 0.390625l-2.15625 0q-0.296875 -0.421875 -0.5625 -0.890625q-0.265625 -0.484375 -0.53125 -0.96875l-0.6875 -1.3125q-0.3125 -0.59375 -0.515625 -0.875q-0.1875 -0.28125 -0.359375 -0.390625q-0.171875 -0.109375 -0.359375 -0.15625q-0.1875 -0.046875 -0.578125 -0.046875l-0.859375 0zm0 -5.3125l0 4.640625l0.890625 0q0.671875 0 1.09375 -0.09375q0.421875 -0.09375 0.78125 -0.359375q0.359375 -0.28125 0.578125 -0.765625q0.21875 -0.5 0.21875 -1.203125q0 -0.75 -0.265625 -1.234375q-0.25 -0.5 -0.765625 -0.75q-0.515625 -0.265625 -1.390625 -0.265625q-0.703125 0 -1.140625 0.03125zm6.875 2.484375l2.21875 0l0 3.96875q0 0.921875 0.0625 1.40625q0.078125 0.46875 0.21875 0.71875q0.140625 0.234375 0.390625 0.40625q0.265625 0.15625 0.71875 0.15625q0.296875 0 0.5625 -0.109375q0.28125 -0.125 0.609375 -0.421875q0.34375 -0.296875 0.484375 -0.578125q0.15625 -0.296875 0.15625 -0.671875l0 -2.9375q0 -0.4375 -0.03125 -0.65625q-0.015625 -0.234375 -0.078125 -0.375q-0.046875 -0.140625 -0.125 -0.21875q-0.078125 -0.09375 -0.21875 -0.15625q-0.125 -0.078125 -0.4375 -0.15625l0 -0.375l2.234375 0l0 5.328125q0 0.609375 0.015625 0.875q0.03125 0.265625 0.109375 0.421875q0.078125 0.15625 0.234375 0.25q0.171875 0.09375 0.59375 0.1875l0 0.40625l-1.796875 0.078125l-0.46875 0l0.046875 -1.28125l-0.125 -0.03125q-0.640625 0.703125 -1.234375 1.03125q-0.59375 0.328125 -1.1875 0.328125q-0.703125 0 -1.171875 -0.28125q-0.453125 -0.28125 -0.6875 -0.84375q-0.21875 -0.5625 -0.21875 -1.578125l0 -2.953125q0 -0.65625 -0.0625 -0.890625q-0.046875 -0.25 -0.1875 -0.390625q-0.140625 -0.15625 -0.625 -0.28125l0 -0.375zm16.632812 7.46875l-3.078125 0l0 -0.390625q0.296875 -0.09375 0.421875 -0.15625q0.140625 -0.078125 0.234375 -0.203125q0.09375 -0.125 0.140625 -0.375q0.046875 -0.265625 0.046875 -0.796875l0 -2.046875q0 -0.546875 -0.03125 -0.984375q-0.03125 -0.453125 -0.109375 -0.734375q-0.0625 -0.296875 -0.171875 -0.453125q-0.109375 -0.15625 -0.25 -0.265625q-0.140625 -0.125 -0.328125 -0.1875q-0.1875 -0.0625 -0.5 -0.0625q-0.296875 0 -0.578125 0.125q-0.265625 0.109375 -0.59375 0.40625q-0.328125 0.296875 -0.484375 0.59375q-0.140625 0.28125 -0.140625 0.65625l0 2.921875q0 0.671875 0.0625 0.9375q0.0625 0.25 0.234375 0.390625q0.171875 0.140625 0.578125 0.234375l0 0.390625l-3.0625 0l0 -0.390625q0.296875 -0.09375 0.421875 -0.15625q0.140625 -0.078125 0.21875 -0.203125q0.09375 -0.125 0.140625 -0.375q0.0625 -0.265625 0.0625 -0.8125l0 -3.40625q0 -0.5 -0.015625 -0.796875q-0.015625 -0.3125 -0.109375 -0.484375q-0.09375 -0.1875 -0.296875 -0.28125q-0.1875 -0.09375 -0.53125 -0.15625l0 -0.40625l1.828125 -0.078125l0.46875 0l-0.078125 1.28125l0.109375 0.03125q0.578125 -0.59375 0.921875 -0.84375q0.359375 -0.25 0.71875 -0.375q0.375 -0.140625 0.78125 -0.140625q0.421875 0 0.75 0.09375q0.328125 0.09375 0.578125 0.296875q0.265625 0.203125 0.421875 0.515625q0.171875 0.296875 0.25 0.71875q0.078125 0.421875 0.078125 1.0625l0 2.953125q0 0.53125 0.03125 0.78125q0.03125 0.234375 0.109375 0.375q0.078125 0.125 0.21875 0.21875q0.15625 0.09375 0.53125 0.1875l0 0.390625zm4.59375 -10.671875l8.453125 0l0 2.71875l-0.765625 0q-0.171875 -0.671875 -0.34375 -1.0625q-0.15625 -0.390625 -0.34375 -0.59375q-0.1875 -0.203125 -0.40625 -0.28125q-0.21875 -0.09375 -0.640625 -0.09375l-1.0 0l0 8.0q0 0.46875 0.046875 0.75q0.0625 0.265625 0.15625 0.421875q0.109375 0.15625 0.28125 0.25q0.1875 0.09375 0.578125 0.171875l0 0.390625l-3.578125 0l0 -0.390625q0.234375 -0.046875 0.40625 -0.109375q0.1875 -0.0625 0.296875 -0.15625q0.125 -0.09375 0.1875 -0.234375q0.078125 -0.140625 0.125 -0.375q0.046875 -0.25 0.046875 -0.71875l0 -8.0l-0.984375 0q-0.375 0 -0.609375 0.078125q-0.234375 0.0625 -0.4375 0.296875q-0.203125 0.21875 -0.375 0.625q-0.171875 0.40625 -0.3125 1.03125l-0.78125 0l0 -2.71875zm14.671875 9.34375q-0.5 0.515625 -0.921875 0.8125q-0.40625 0.296875 -0.90625 0.46875q-0.5 0.171875 -1.109375 0.171875q-1.609375 0 -2.4375 -0.96875q-0.8125 -0.96875 -0.8125 -2.84375q0 -1.171875 0.421875 -2.0625q0.421875 -0.890625 1.1875 -1.375q0.78125 -0.484375 1.78125 -0.484375q0.796875 0 1.34375 0.25q0.5625 0.25 0.890625 0.6875q0.328125 0.4375 0.515625 1.09375q0.1875 0.65625 0.203125 1.71875l-4.921875 0l0 0.140625q0 0.921875 0.203125 1.5625q0.21875 0.625 0.6875 0.984375q0.46875 0.34375 1.234375 0.34375q0.640625 0 1.140625 -0.234375q0.515625 -0.234375 1.03125 -0.78125l0.46875 0.515625zm-1.3125 -3.171875q-0.046875 -0.84375 -0.21875 -1.375q-0.15625 -0.546875 -0.484375 -0.828125q-0.328125 -0.28125 -0.859375 -0.28125q-0.796875 0 -1.28125 0.640625q-0.484375 0.640625 -0.5625 1.84375l3.40625 0zm8.1171875 -1.265625l-0.75 0q-0.171875 -0.46875 -0.40625 -0.734375q-0.234375 -0.265625 -0.53125 -0.375q-0.296875 -0.109375 -0.734375 -0.109375q-0.625 0 -1.0 0.296875q-0.359375 0.28125 -0.359375 0.796875q0 0.359375 0.140625 0.59375q0.15625 0.234375 0.46875 0.4375q0.3125 0.203125 1.09375 0.53125q0.796875 0.34375 1.234375 0.640625q0.4375 0.28125 0.671875 0.671875q0.25 0.375 0.25 0.90625q0 0.625 -0.21875 1.046875q-0.203125 0.421875 -0.59375 0.6875q-0.375 0.265625 -0.90625 0.375q-0.515625 0.125 -1.140625 0.125q-0.65625 0 -1.28125 -0.109375q-0.609375 -0.09375 -1.203125 -0.25l0 -1.625l0.765625 0q0.21875 0.71875 0.625 1.046875q0.421875 0.3125 1.140625 0.3125q0.28125 0 0.546875 -0.046875q0.28125 -0.0625 0.484375 -0.203125q0.21875 -0.140625 0.34375 -0.375q0.125 -0.234375 0.125 -0.578125q0 -0.40625 -0.15625 -0.65625q-0.15625 -0.25 -0.484375 -0.453125q-0.328125 -0.203125 -1.15625 -0.5625q-0.71875 -0.296875 -1.15625 -0.578125q-0.421875 -0.28125 -0.671875 -0.65625q-0.234375 -0.390625 -0.234375 -0.90625q0 -0.640625 0.34375 -1.109375q0.34375 -0.484375 1.0 -0.734375q0.65625 -0.25 1.546875 -0.25q0.515625 0 0.984375 0.0625q0.484375 0.046875 1.21875 0.1875l0 1.59375zm1.171875 -1.3125q0.390625 -0.0625 0.625 -0.21875q0.25 -0.15625 0.375 -0.40625q0.140625 -0.25 0.21875 -0.609375q0.078125 -0.375 0.171875 -1.09375l1.109375 0l0 1.9375l2.515625 0l0 0.78125l-2.515625 0l0 3.484375q0 0.75 0.0625 1.203125q0.0625 0.453125 0.234375 0.703125q0.171875 0.25 0.390625 0.359375q0.21875 0.109375 0.5625 0.109375q0.3125 0 0.578125 -0.125q0.28125 -0.125 0.546875 -0.375l0.34375 0.421875q-0.546875 0.546875 -1.046875 0.796875q-0.5 0.234375 -1.03125 0.234375q-1.0 0 -1.5 -0.59375q-0.484375 -0.609375 -0.484375 -1.875l0 -4.34375l-1.15625 0l0 -0.390625z" fill-rule="nonzero"/><path fill="#000000" fill-opacity="0.0" d="m365.67902 138.7362l0 0l0 18.757812l0 0l0 -18.757812z" fill-rule="nonzero"/><path fill="#f3f3f3" d="m65.00525 253.86876l112.157486 0l0 38.771652l-112.157486 0z" fill-rule="evenodd"/><path stroke="#595959" stroke-width="1.0" stroke-linejoin="round" stroke-linecap="butt" d="m65.00525 253.86876l112.157486 0l0 38.771652l-112.157486 0z" fill-rule="evenodd"/><path fill="#eeeeee" d="m82.74024 262.86877l76.68749 0l0 19.199982l-76.68749 0l0 -19.199982z" fill-rule="nonzero"/><path fill="#000000" fill-opacity="0.0" d="m82.74024 265.78345l76.68749 0l0 18.757812l-76.68749 0l0 -18.757812z" fill-rule="nonzero"/><path fill="#000000" d="m88.95899 278.22876l0 -0.390625q0.390625 -0.078125 0.578125 -0.171875q0.203125 -0.09375 0.296875 -0.25q0.09375 -0.171875 0.09375 -0.453125q0 -0.265625 -0.0625 -0.578125q-0.0625 -0.3125 -0.1875 -0.6875l-0.28125 -1.015625l-3.640625 0l-0.265625 0.765625q-0.203125 0.578125 -0.265625 0.875q-0.0625 0.296875 -0.0625 0.546875q0 0.46875 0.234375 0.6875q0.234375 0.21875 0.734375 0.28125l0 0.390625l-3.34375 0l0 -0.390625q0.4375 -0.0625 0.765625 -0.5q0.328125 -0.4375 0.625 -1.25l3.265625 -8.65625l1.234375 0l2.65625 8.71875q0.1875 0.609375 0.328125 0.9375q0.140625 0.3125 0.34375 0.5q0.203125 0.171875 0.5625 0.25l0 0.390625l-3.609375 0zm-3.0 -4.21875l3.265625 0l-1.484375 -5.046875l-1.78125 5.046875zm12.65625 -4.28125q0 -0.75 -0.015625 -1.046875q0 -0.296875 -0.0625 -0.5q-0.046875 -0.203125 -0.140625 -0.3125q-0.078125 -0.125 -0.234375 -0.1875q-0.15625 -0.078125 -0.546875 -0.15625l0 -0.40625l1.890625 -0.078125l0.453125 0l0 9.046875q0 0.609375 0.015625 0.875q0.03125 0.265625 0.109375 0.421875q0.078125 0.15625 0.25 0.25q0.171875 0.09375 0.59375 0.1875l0 0.40625l-1.84375 0.078125l-0.46875 0l0.09375 -1.28125l-0.125 -0.03125q-0.484375 0.515625 -0.859375 0.78125q-0.359375 0.265625 -0.765625 0.421875q-0.40625 0.15625 -0.875 0.15625q-1.28125 0 -1.984375 -0.96875q-0.6875 -0.984375 -0.6875 -2.8125q0 -1.28125 0.453125 -2.171875q0.453125 -0.90625 1.21875 -1.34375q0.765625 -0.4375 1.734375 -0.4375q0.515625 0 0.9375 0.09375q0.421875 0.078125 0.859375 0.265625l0 -1.25zm0 3.859375q0 -0.609375 -0.0625 -0.96875q-0.046875 -0.375 -0.171875 -0.625q-0.125 -0.25 -0.34375 -0.421875q-0.21875 -0.171875 -0.484375 -0.25q-0.265625 -0.078125 -0.625 -0.078125q-1.0 0 -1.53125 0.8125q-0.515625 0.796875 -0.515625 2.296875q0 1.5 0.421875 2.28125q0.4375 0.78125 1.3125 0.78125q0.34375 0 0.5625 -0.0625q0.234375 -0.0625 0.453125 -0.1875q0.21875 -0.125 0.4375 -0.34375q0.234375 -0.234375 0.328125 -0.421875q0.109375 -0.1875 0.15625 -0.421875q0.0625 -0.25 0.0625 -0.640625l0 -1.75zm8.875 -3.859375q0 -0.75 -0.015625 -1.046875q0 -0.296875 -0.0625 -0.5q-0.046875 -0.203125 -0.140625 -0.3125q-0.078125 -0.125 -0.234375 -0.1875q-0.15625 -0.078125 -0.546875 -0.15625l0 -0.40625l1.890625 -0.078125l0.453125 0l0 9.046875q0 0.609375 0.015625 0.875q0.03125 0.265625 0.109375 0.421875q0.078125 0.15625 0.25 0.25q0.171875 0.09375 0.59375 0.1875l0 0.40625l-1.84375 0.078125l-0.46875 0l0.09375 -1.28125l-0.125 -0.03125q-0.484375 0.515625 -0.859375 0.78125q-0.359375 0.265625 -0.765625 0.421875q-0.40625 0.15625 -0.875 0.15625q-1.28125 0 -1.984375 -0.96875q-0.6875 -0.984375 -0.6875 -2.8125q0 -1.28125 0.453125 -2.171875q0.453125 -0.90625 1.21875 -1.34375q0.765625 -0.4375 1.734375 -0.4375q0.515625 0 0.9375 0.09375q0.421875 0.078125 0.859375 0.265625l0 -1.25zm0 3.859375q0 -0.609375 -0.0625 -0.96875q-0.046875 -0.375 -0.171875 -0.625q-0.125 -0.25 -0.34375 -0.421875q-0.21875 -0.171875 -0.484375 -0.25q-0.265625 -0.078125 -0.625 -0.078125q-1.0 0 -1.53125 0.8125q-0.515625 0.796875 -0.515625 2.296875q0 1.5 0.421875 2.28125q0.4375 0.78125 1.3125 0.78125q0.34375 0 0.5625 -0.0625q0.234375 -0.0625 0.453125 -0.1875q0.21875 -0.125 0.4375 -0.34375q0.234375 -0.234375 0.328125 -0.421875q0.109375 -0.1875 0.15625 -0.421875q0.0625 -0.25 0.0625 -0.640625l0 -1.75zm6.6640625 -2.4375q0.390625 -0.0625 0.625 -0.21875q0.25 -0.15625 0.375 -0.40625q0.140625 -0.25 0.21875 -0.609375q0.078125 -0.375 0.171875 -1.09375l1.109375 0l0 1.9375l2.515625 0l0 0.78125l-2.515625 0l0 3.484375q0 0.75 0.0625 1.203125q0.0625 0.453125 0.234375 0.703125q0.171875 0.25 0.390625 0.359375q0.21875 0.109375 0.5625 0.109375q0.3125 0 0.578125 -0.125q0.28125 -0.125 0.546875 -0.375l0.34375 0.421875q-0.546875 0.546875 -1.046875 0.796875q-0.5 0.234375 -1.03125 0.234375q-1.0 0 -1.5 -0.59375q-0.484375 -0.609375 -0.484375 -1.875l0 -4.34375l-1.15625 0l0 -0.390625zm9.1328125 7.203125q-1.625 0 -2.484375 -0.953125q-0.84375 -0.96875 -0.84375 -2.84375q0 -1.28125 0.4375 -2.171875q0.453125 -0.890625 1.234375 -1.328125q0.78125 -0.4375 1.78125 -0.4375q1.671875 0 2.53125 0.984375q0.859375 0.96875 0.859375 2.78125q0 1.296875 -0.4375 2.1875q-0.421875 0.890625 -1.21875 1.34375q-0.78125 0.4375 -1.859375 0.4375zm-1.859375 -3.953125q0 1.609375 0.515625 2.46875q0.515625 0.859375 1.46875 0.859375q0.515625 0 0.875 -0.25q0.375 -0.25 0.609375 -0.671875q0.234375 -0.4375 0.328125 -1.0q0.109375 -0.578125 0.109375 -1.1875q0 -1.15625 -0.265625 -1.90625q-0.25 -0.765625 -0.6875 -1.109375q-0.4375 -0.359375 -1.0 -0.359375q-0.9375 0 -1.453125 0.828125q-0.5 0.8125 -0.5 2.328125zm10.234367 -6.84375l8.453125 0l0 2.71875l-0.765625 0q-0.171875 -0.671875 -0.34375 -1.0625q-0.15625 -0.390625 -0.34375 -0.59375q-0.1875 -0.203125 -0.40625 -0.28125q-0.21875 -0.09375 -0.640625 -0.09375l-1.0 0l0 8.0q0 0.46875 0.046875 0.75q0.0625 0.265625 0.15625 0.421875q0.109375 0.15625 0.28125 0.25q0.1875 0.09375 0.578125 0.171875l0 0.390625l-3.578125 0l0 -0.390625q0.234375 -0.046875 0.40625 -0.109375q0.1875 -0.0625 0.296875 -0.15625q0.125 -0.09375 0.1875 -0.234375q0.078125 -0.140625 0.125 -0.375q0.046875 -0.25 0.046875 -0.71875l0 -8.0l-0.984375 0q-0.375 0 -0.609375 0.078125q-0.234375 0.0625 -0.4375 0.296875q-0.203125 0.21875 -0.375 0.625q-0.171875 0.40625 -0.3125 1.03125l-0.78125 0l0 -2.71875zm14.671875 9.34375q-0.5 0.515625 -0.921875 0.8125q-0.40625 0.296875 -0.90625 0.46875q-0.5 0.171875 -1.109375 0.171875q-1.609375 0 -2.4375 -0.96875q-0.8125 -0.96875 -0.8125 -2.84375q0 -1.171875 0.421875 -2.0625q0.421875 -0.890625 1.1875 -1.375q0.78125 -0.484375 1.78125 -0.484375q0.796875 0 1.34375 0.25q0.5625 0.25 0.890625 0.6875q0.328125 0.4375 0.515625 1.09375q0.1875 0.65625 0.203125 1.71875l-4.921875 0l0 0.140625q0 0.921875 0.203125 1.5625q0.21875 0.625 0.6875 0.984375q0.46875 0.34375 1.234375 0.34375q0.640625 0 1.140625 -0.234375q0.515625 -0.234375 1.03125 -0.78125l0.46875 0.515625zm-1.3125 -3.171875q-0.046875 -0.84375 -0.21875 -1.375q-0.15625 -0.546875 -0.484375 -0.828125q-0.328125 -0.28125 -0.859375 -0.28125q-0.796875 0 -1.28125 0.640625q-0.484375 0.640625 -0.5625 1.84375l3.40625 0zm8.1171875 -1.265625l-0.75 0q-0.171875 -0.46875 -0.40625 -0.734375q-0.234375 -0.265625 -0.53125 -0.375q-0.296875 -0.109375 -0.734375 -0.109375q-0.625 0 -1.0 0.296875q-0.359375 0.28125 -0.359375 0.796875q0 0.359375 0.140625 0.59375q0.15625 0.234375 0.46875 0.4375q0.3125 0.203125 1.09375 0.53125q0.796875 0.34375 1.234375 0.640625q0.4375 0.28125 0.671875 0.671875q0.25 0.375 0.25 0.90625q0 0.625 -0.21875 1.046875q-0.203125 0.421875 -0.59375 0.6875q-0.375 0.265625 -0.90625 0.375q-0.515625 0.125 -1.140625 0.125q-0.65625 0 -1.28125 -0.109375q-0.609375 -0.09375 -1.203125 -0.25l0 -1.625l0.765625 0q0.21875 0.71875 0.625 1.046875q0.421875 0.3125 1.140625 0.3125q0.28125 0 0.546875 -0.046875q0.28125 -0.0625 0.484375 -0.203125q0.21875 -0.140625 0.34375 -0.375q0.125 -0.234375 0.125 -0.578125q0 -0.40625 -0.15625 -0.65625q-0.15625 -0.25 -0.484375 -0.453125q-0.328125 -0.203125 -1.15625 -0.5625q-0.71875 -0.296875 -1.15625 -0.578125q-0.421875 -0.28125 -0.671875 -0.65625q-0.234375 -0.390625 -0.234375 -0.90625q0 -0.640625 0.34375 -1.109375q0.34375 -0.484375 1.0 -0.734375q0.65625 -0.25 1.546875 -0.25q0.515625 0 0.984375 0.0625q0.484375 0.046875 1.21875 0.1875l0 1.59375zm1.171875 -1.3125q0.390625 -0.0625 0.625 -0.21875q0.25 -0.15625 0.375 -0.40625q0.140625 -0.25 0.21875 -0.609375q0.078125 -0.375 0.171875 -1.09375l1.109375 0l0 1.9375l2.515625 0l0 0.78125l-2.515625 0l0 3.484375q0 0.75 0.0625 1.203125q0.0625 0.453125 0.234375 0.703125q0.171875 0.25 0.390625 0.359375q0.21875 0.109375 0.5625 0.109375q0.3125 0 0.578125 -0.125q0.28125 -0.125 0.546875 -0.375l0.34375 0.421875q-0.546875 0.546875 -1.046875 0.796875q-0.5 0.234375 -1.03125 0.234375q-1.0 0 -1.5 -0.59375q-0.484375 -0.609375 -0.484375 -1.875l0 -4.34375l-1.15625 0l0 -0.390625z" fill-rule="nonzero"/><path fill="#000000" fill-opacity="0.0" d="m159.42773 265.78345l0 0l0 18.757812l0 0l0 -18.757812z" fill-rule="nonzero"/><path fill="#f3f3f3" d="m65.00525 126.821526l144.25197 0l0 38.771645l-144.25197 0z" fill-rule="evenodd"/><path stroke="#595959" stroke-width="1.0" stroke-linejoin="round" stroke-linecap="butt" d="m65.00525 126.821526l144.25197 0l0 38.771645l-144.25197 0z" fill-rule="evenodd"/><path fill="#eeeeee" d="m77.45545 135.82152l119.35157 0l0 19.199997l-119.35157 0l0 -19.199997z" fill-rule="nonzero"/><path fill="#000000" fill-opacity="0.0" d="m77.45545 138.7362l119.351555 0l0 18.757812l-119.351555 0l0 -18.757812z" fill-rule="nonzero"/><path fill="#000000" d="m78.4242 147.15027l0 -1.09375l6.921875 -2.96875l0 1.171875l-5.765625 2.34375l5.765625 2.359375l0 1.171875l-6.921875 -2.984375zm16.851562 1.984375q0 0.453125 0.046875 0.6875q0.046875 0.234375 0.171875 0.375q0.140625 0.140625 0.375 0.234375q0.25 0.078125 0.609375 0.125q0.375 0.03125 0.96875 0.046875l0 0.578125l-5.765625 0l0 -0.578125q0.859375 -0.03125 1.234375 -0.09375q0.375 -0.078125 0.5625 -0.203125q0.203125 -0.140625 0.28125 -0.375q0.09375 -0.25 0.09375 -0.796875l0 -6.328125q0 -0.3125 -0.109375 -0.453125q-0.109375 -0.15625 -0.3125 -0.15625q-0.25 0 -0.71875 0.265625q-0.453125 0.25 -1.140625 0.703125l-0.34375 -0.59375l3.65625 -2.1875l0.4375 0q-0.046875 0.75 -0.046875 2.078125l0 6.671875zm7.765625 2.171875q-1.6875 0 -2.515625 -1.328125q-0.8125 -1.328125 -0.8125 -4.03125q0 -1.4375 0.25 -2.484375q0.25 -1.046875 0.703125 -1.734375q0.46875 -0.6875 1.109375 -1.015625q0.640625 -0.328125 1.390625 -0.328125q1.71875 0 2.546875 1.328125q0.84375 1.3125 0.84375 3.984375q0 2.765625 -0.90625 4.1875q-0.890625 1.421875 -2.609375 1.421875zm-1.8125 -5.59375q0 2.546875 0.46875 3.734375q0.484375 1.1875 1.46875 1.1875q0.953125 0 1.40625 -1.109375q0.453125 -1.125 0.453125 -3.484375q0 -1.796875 -0.234375 -2.90625q-0.234375 -1.109375 -0.65625 -1.59375q-0.40625 -0.484375 -1.0 -0.484375q-0.546875 0 -0.90625 0.328125q-0.359375 0.3125 -0.59375 0.921875q-0.21875 0.59375 -0.3125 1.453125q-0.09375 0.859375 -0.09375 1.953125zm10.671875 5.59375q-1.6875 0 -2.515625 -1.328125q-0.8125 -1.328125 -0.8125 -4.03125q0 -1.4375 0.25 -2.484375q0.25 -1.046875 0.703125 -1.734375q0.46875 -0.6875 1.109375 -1.015625q0.640625 -0.328125 1.390625 -0.328125q1.71875 0 2.546875 1.328125q0.84375 1.3125 0.84375 3.984375q0 2.765625 -0.90625 4.1875q-0.890625 1.421875 -2.609375 1.421875zm-1.8125 -5.59375q0 2.546875 0.46875 3.734375q0.484375 1.1875 1.46875 1.1875q0.953125 0 1.40625 -1.109375q0.453125 -1.125 0.453125 -3.484375q0 -1.796875 -0.234375 -2.90625q-0.234375 -1.109375 -0.65625 -1.59375q-0.40625 -0.484375 -1.0 -0.484375q-0.546875 0 -0.90625 0.328125q-0.359375 0.3125 -0.59375 0.921875q-0.21875 0.59375 -0.3125 1.453125q-0.09375 0.859375 -0.09375 1.953125zm9.53125 1.421875q-1.203125 0 -1.796875 -0.828125q-0.578125 -0.828125 -0.578125 -2.484375q0 -1.15625 0.3125 -1.921875q0.3125 -0.78125 0.859375 -1.140625q0.5625 -0.375 1.28125 -0.375q0.6875 0 1.140625 0.25q0.46875 0.234375 0.75 0.671875q0.28125 0.4375 0.40625 1.046875q0.125 0.59375 0.125 1.328125q0 1.703125 -0.65625 2.578125q-0.640625 0.875 -1.84375 0.875zm-1.21875 -3.453125q0 1.515625 0.3125 2.203125q0.3125 0.6875 0.984375 0.6875q0.640625 0 0.953125 -0.640625q0.3125 -0.640625 0.3125 -2.046875q0 -1.5 -0.3125 -2.21875q-0.3125 -0.71875 -0.953125 -0.71875q-0.5 0 -0.78125 0.328125q-0.28125 0.328125 -0.40625 0.9375q-0.109375 0.59375 -0.109375 1.46875zm9.15625 -3.171875l-6.890625 11.421875l-1.140625 0l6.90625 -11.421875l1.125 0zm-0.21875 11.546875q-1.203125 0 -1.796875 -0.828125q-0.578125 -0.828125 -0.578125 -2.5q0 -1.15625 0.3125 -1.921875q0.3125 -0.765625 0.859375 -1.125q0.5625 -0.375 1.28125 -0.375q0.6875076 0 1.1406326 0.25q0.46875 0.234375 0.75 0.671875q0.28125 0.421875 0.40625 1.03125q0.125 0.609375 0.125 1.328125q0 1.71875 -0.65625 2.59375q-0.640625 0.875 -1.8437576 0.875zm-1.21875 -3.453125q0 1.515625 0.3125 2.203125q0.3125 0.6875 0.984375 0.6875q0.6406326 0 0.9531326 -0.640625q0.3125 -0.640625 0.3125 -2.046875q0 -1.5 -0.3125 -2.21875q-0.3125 -0.71875 -0.9531326 -0.71875q-0.5 0 -0.78125 0.328125q-0.28125 0.328125 -0.40625 0.921875q-0.109375 0.59375 -0.109375 1.484375zm16.19532 -7.859375l0 2.15625l-0.765625 0q-0.1875 -0.671875 -0.484375 -1.078125q-0.28125 -0.40625 -0.671875 -0.578125q-0.375 -0.171875 -0.921875 -0.171875q-0.796875 0 -1.4375 0.546875q-0.625 0.53125 -0.984375 1.609375q-0.359375 1.0625 -0.359375 2.59375q0 1.53125 0.296875 2.609375q0.296875 1.078125 0.875 1.640625q0.578125 0.546875 1.421875 0.546875q0.640625 0 1.046875 -0.1875q0.40625 -0.1875 0.6875 -0.578125q0.28125 -0.40625 0.53125 -1.171875l0.765625 0l0 2.234375q-0.734375 0.1875 -1.5 0.28125q-0.765625 0.109375 -1.6875 0.109375q-1.984375 0 -3.0 -1.34375q-1.015625 -1.34375 -1.015625 -4.015625q0 -1.671875 0.515625 -2.921875q0.53125 -1.265625 1.546875 -1.953125q1.03125 -0.6875 2.453125 -0.6875q0.71875 0 1.3125 0.078125q0.609375 0.078125 1.375 0.28125zm5.015625 10.5625q-1.625 0 -2.484375 -0.953125q-0.84375 -0.96875 -0.84375 -2.84375q0 -1.28125 0.4375 -2.171875q0.453125 -0.890625 1.234375 -1.328125q0.78125 -0.4375 1.78125 -0.4375q1.671875 0 2.53125 0.984375q0.859375 0.96875 0.859375 2.78125q0 1.296875 -0.4375 2.1875q-0.421875 0.890625 -1.21875 1.34375q-0.78125 0.4375 -1.859375 0.4375zm-1.859375 -3.953125q0 1.609375 0.515625 2.46875q0.515625 0.859375 1.46875 0.859375q0.515625 0 0.875 -0.25q0.375 -0.25 0.609375 -0.671875q0.234375 -0.4375 0.328125 -1.0q0.109375 -0.578125 0.109375 -1.1875q0 -1.15625 -0.265625 -1.90625q-0.25 -0.765625 -0.6875 -1.109375q-0.4375 -0.359375 -1.0 -0.359375q-0.9375 0 -1.453125 0.828125q-0.5 0.8125 -0.5 2.328125zm9.3046875 -3.640625l0 0.375q-0.359375 0.09375 -0.515625 0.171875q-0.140625 0.078125 -0.21875 0.203125q-0.078125 0.125 -0.078125 0.328125q0 0.21875 0.046875 0.453125q0.0625 0.21875 0.171875 0.53125l1.359375 3.953125l1.59375 -3.796875q0.15625 -0.375 0.21875 -0.609375q0.0625 -0.25 0.0625 -0.453125q0 -0.328125 -0.1875 -0.5q-0.171875 -0.171875 -0.640625 -0.28125l0 -0.375l2.921875 0l0 0.375q-0.296875 0.0625 -0.46875 0.203125q-0.15625 0.125 -0.328125 0.40625q-0.15625 0.265625 -0.390625 0.765625l-2.625 5.796875l-0.921875 0l-2.125 -5.84375q-0.21875 -0.59375 -0.34375 -0.8125q-0.125 -0.234375 -0.28125 -0.34375q-0.15625 -0.109375 -0.4375 -0.171875l0 -0.375l3.1875 0zm11.40625 6.140625q-0.5 0.515625 -0.921875 0.8125q-0.40625 0.296875 -0.90625 0.46875q-0.5 0.171875 -1.109375 0.171875q-1.609375 0 -2.4375 -0.96875q-0.8125 -0.96875 -0.8125 -2.84375q0 -1.171875 0.421875 -2.0625q0.421875 -0.890625 1.1875 -1.375q0.78125 -0.484375 1.78125 -0.484375q0.796875 0 1.34375 0.25q0.5625 0.25 0.890625 0.6875q0.328125 0.4375 0.515625 1.09375q0.1875 0.65625 0.203125 1.71875l-4.921875 0l0 0.140625q0 0.921875 0.203125 1.5625q0.21875 0.625 0.6875 0.984375q0.46875 0.34375 1.234375 0.34375q0.640625 0 1.140625 -0.234375q0.515625 -0.234375 1.03125 -0.78125l0.46875 0.515625zm-1.3125 -3.171875q-0.046875 -0.84375 -0.21875 -1.375q-0.15625 -0.546875 -0.484375 -0.828125q-0.328125 -0.28125 -0.859375 -0.28125q-0.796875 0 -1.28125 0.640625q-0.484375 0.640625 -0.5625 1.84375l3.40625 0zm4.9921875 -1.671875l0.109375 0.015625q0.421875 -0.515625 0.78125 -0.8125q0.375 -0.3125 0.796875 -0.46875q0.4375 -0.171875 0.96875 -0.171875q0.453125 0 0.828125 0.046875l0 1.796875l-0.890625 0q-0.1875 -0.421875 -0.40625 -0.609375q-0.203125 -0.1875 -0.5625 -0.1875q-0.28125 0 -0.5625 0.171875q-0.28125 0.15625 -0.546875 0.46875q-0.25 0.3125 -0.34375 0.59375q-0.09375 0.265625 -0.09375 0.640625l0 2.734375q0 0.703125 0.078125 0.984375q0.09375 0.265625 0.28125 0.390625q0.203125 0.125 0.609375 0.1875l0 0.390625l-3.15625 0l0 -0.390625q0.296875 -0.09375 0.421875 -0.15625q0.140625 -0.078125 0.234375 -0.203125q0.09375 -0.125 0.140625 -0.375q0.046875 -0.265625 0.046875 -0.8125l0 -3.40625q0 -0.5 -0.015625 -0.796875q-0.015625 -0.3125 -0.109375 -0.484375q-0.09375 -0.1875 -0.296875 -0.28125q-0.1875 -0.09375 -0.53125 -0.15625l0 -0.40625l1.828125 -0.078125l0.46875 0l-0.078125 1.375zm10.5078125 4.84375q-0.5 0.515625 -0.921875 0.8125q-0.40625 0.296875 -0.90625 0.46875q-0.5 0.171875 -1.109375 0.171875q-1.609375 0 -2.4375 -0.96875q-0.8125 -0.96875 -0.8125 -2.84375q0 -1.171875 0.421875 -2.0625q0.421875 -0.890625 1.1875 -1.375q0.78125 -0.484375 1.78125 -0.484375q0.796875 0 1.34375 0.25q0.5625 0.25 0.890625 0.6875q0.328125 0.4375 0.515625 1.09375q0.1875 0.65625 0.203125 1.71875l-4.921875 0l0 0.140625q0 0.921875 0.203125 1.5625q0.21875 0.625 0.6875 0.984375q0.46875 0.34375 1.234375 0.34375q0.640625 0 1.140625 -0.234375q0.515625 -0.234375 1.03125 -0.78125l0.46875 0.515625zm-1.3125 -3.171875q-0.046875 -0.84375 -0.21875 -1.375q-0.15625 -0.546875 -0.484375 -0.828125q-0.328125 -0.28125 -0.859375 -0.28125q-0.796875 0 -1.28125 0.640625q-0.484375 0.640625 -0.5625 1.84375l3.40625 0zm8.1484375 -4.0q0 -0.75 -0.015625 -1.046875q0 -0.296875 -0.0625 -0.5q-0.046875 -0.203125 -0.140625 -0.3125q-0.078125 -0.125 -0.234375 -0.1875q-0.15625 -0.078125 -0.546875 -0.15625l0 -0.40625l1.890625 -0.078125l0.453125 0l0 9.046875q0 0.609375 0.015625 0.875q0.03125 0.265625 0.109375 0.421875q0.078125 0.15625 0.25 0.25q0.171875 0.09375 0.59375 0.1875l0 0.40625l-1.84375 0.078125l-0.46875 0l0.09375 -1.28125l-0.125 -0.03125q-0.484375 0.515625 -0.859375 0.78125q-0.359375 0.265625 -0.765625 0.421875q-0.40625 0.15625 -0.875 0.15625q-1.28125 0 -1.984375 -0.96875q-0.6875 -0.984375 -0.6875 -2.8125q0 -1.28125 0.453125 -2.171875q0.453125 -0.90625 1.21875 -1.34375q0.765625 -0.4375 1.734375 -0.4375q0.515625 0 0.9375 0.09375q0.421875 0.078125 0.859375 0.265625l0 -1.25zm0 3.859375q0 -0.609375 -0.0625 -0.96875q-0.046875 -0.375 -0.171875 -0.625q-0.125 -0.25 -0.34375 -0.421875q-0.21875 -0.171875 -0.484375 -0.25q-0.265625 -0.078125 -0.625 -0.078125q-1.0 0 -1.53125 0.8125q-0.515625 0.796875 -0.515625 2.296875q0 1.5 0.421875 2.28125q0.4375 0.78125 1.3125 0.78125q0.34375 0 0.5625 -0.0625q0.234375 -0.0625 0.453125 -0.1875q0.21875 -0.125 0.4375 -0.34375q0.234375 -0.234375 0.328125 -0.421875q0.109375 -0.1875 0.15625 -0.421875q0.0625 -0.25 0.0625 -0.640625l0 -1.75zm5.3125 1.390625l0 -0.265625q0 -0.328125 0.03125 -0.515625q0.046875 -0.203125 0.140625 -0.421875q0.109375 -0.21875 0.3125 -0.515625q0.20310974 -0.3125 0.59373474 -0.796875q0.453125 -0.578125 0.640625 -0.9375q0.203125 -0.359375 0.296875 -0.734375q0.109375 -0.390625 0.109375 -0.875q0 -0.59375 -0.171875 -1.015625q-0.15625 -0.421875 -0.453125 -0.625q-0.296875 -0.21875 -0.6875 -0.21875q-0.60935974 0 -0.98435974 0.375q-0.375 0.359375 -0.515625 1.09375l-1.0625 0l0 -1.28125q0.890625 -0.453125 1.515625 -0.625q0.625 -0.1875 1.2187347 -0.1875q0.9375 0 1.546875 0.28125q0.625 0.28125 0.890625 0.765625q0.28125 0.484375 0.28125 1.125q0 0.3125 -0.0625 0.59375q-0.046875 0.265625 -0.171875 0.53125q-0.109375 0.25 -0.296875 0.515625q-0.171875 0.265625 -0.40625 0.546875q-0.21875 0.265625 -0.765625 0.921875q-0.421875 0.484375 -0.609375 0.78125q-0.1875 0.28125 -0.265625 0.5625q-0.078125 0.28125 -0.078125 0.71875l0 0.203125l-1.0468597 0zm1.3281097 1.4375l0 1.8125l-1.5624847 0l0 -1.8125l1.5624847 0z" fill-rule="nonzero"/><path fill="#000000" fill-opacity="0.0" d="m196.807 138.7362l0 0l0 18.757812l0 0l0 -18.757812z" fill-rule="nonzero"/></g></svg>